<svg version="1.1" id="Layer_1" xmlns="http://www.w3.org/2000/svg" xmlns:xlink="http://www.w3.org/1999/xlink" x="0px" y="0px"
	 width="100%" viewBox="0 0 316 376" enable-background="new 0 0 316 376" xml:space="preserve">
<path fill="#000000" opacity="1.000000" stroke="none" 
	d="
M171.000000,377.000000 
	C114.000008,377.000000 57.500019,377.000000 1.000023,377.000000 
	C1.000015,251.666702 1.000015,126.333397 1.000008,1.000073 
	C106.333282,1.000049 211.666565,1.000049 316.999878,1.000024 
	C316.999939,126.333260 316.999939,251.666519 316.999969,376.999878 
	C268.500000,377.000000 220.000000,377.000000 171.000000,377.000000 
M282.689575,94.458237 
	C281.480347,93.957680 280.271149,93.457115 278.728394,92.429581 
	C277.856201,91.927750 276.983978,91.425919 275.847961,90.625557 
	C275.501129,90.693504 275.154297,90.761452 274.393005,90.870667 
	C274.393005,90.870667 273.984131,90.950294 273.477539,90.515388 
	C272.232391,89.458801 271.124908,88.148628 269.720123,87.386154 
	C259.419769,81.795403 249.001816,76.419777 238.734726,70.769562 
	C228.084869,64.908699 217.629745,58.693314 206.968338,52.854137 
	C193.174561,45.299400 179.199142,38.074947 165.444702,30.450750 
	C162.255798,28.683109 159.803680,28.711750 156.710175,30.445000 
	C148.418610,35.090675 139.981659,39.478191 131.578918,43.923786 
	C122.110680,48.933109 112.576324,53.818874 103.147499,58.900829 
	C96.313934,62.583992 89.593872,66.478859 82.845207,70.318001 
	C78.321098,72.891655 73.947014,75.753258 69.310638,78.100540 
	C57.896145,83.879417 46.369022,89.435829 34.200901,95.567894 
	C34.143742,96.229591 34.036861,96.891266 34.036518,97.552986 
	C34.014194,140.316116 33.994259,183.079239 34.023548,225.842331 
	C34.024254,226.869064 34.583168,227.895386 35.315098,229.409943 
	C35.736561,233.403320 35.390961,237.676956 36.727787,241.335892 
	C40.293850,251.096313 43.450562,261.287140 48.823277,270.047638 
	C59.687248,287.761902 74.135460,302.711517 89.837463,316.257324 
	C98.470825,323.705139 108.234657,329.775116 117.324966,336.704254 
	C126.100586,343.393463 135.672180,349.038452 145.190262,355.530243 
	C146.754913,355.709290 148.319565,355.888336 149.981583,356.725128 
	C154.256363,364.712219 160.363159,366.453247 167.580154,361.700928 
	C172.126846,358.707001 176.637863,355.658813 181.163223,352.632477 
	C199.359085,340.463806 217.082458,327.725311 233.566940,313.218719 
	C249.995026,298.761780 264.508026,282.854279 275.100891,263.645477 
	C277.298401,259.660553 278.393585,255.047043 279.830841,250.668762 
	C281.644867,245.142670 283.288727,239.560730 285.098541,233.295166 
	C285.368896,232.141479 285.639282,230.987793 286.000671,228.921585 
	C285.995117,186.026367 285.998108,143.131134 285.945007,100.235977 
	C285.943298,98.868973 285.364655,97.502686 284.770081,95.684929 
	C284.477661,95.488708 284.185242,95.292488 283.454865,95.113960 
	C283.454865,95.113960 283.018494,95.072609 282.689575,94.458237 
z"/>
<path fill="#1E1C16" opacity="1.000000" stroke="none" 
	d="
M285.006012,234.002899 
	C283.288727,239.560730 281.644867,245.142670 279.830841,250.668762 
	C278.393585,255.047043 277.298401,259.660553 275.100891,263.645477 
	C264.508026,282.854279 249.995026,298.761780 233.566940,313.218719 
	C217.082458,327.725311 199.359085,340.463806 181.163223,352.632477 
	C176.637863,355.658813 172.126846,358.707001 167.580154,361.700928 
	C160.363159,366.453247 154.256363,364.712219 150.243805,356.500458 
	C151.332870,356.523407 152.159714,356.771027 153.033188,357.101074 
	C153.079803,357.183533 153.312546,357.190247 153.312546,357.190247 
	C153.312546,357.190247 153.019531,356.985748 152.871033,356.662109 
	C151.374786,353.933441 150.027039,351.528412 148.308563,348.461823 
	C146.943085,351.133362 145.918625,353.137756 144.894135,355.142120 
	C135.672180,349.038452 126.100586,343.393463 117.324966,336.704254 
	C108.234657,329.775116 98.470825,323.705139 89.837463,316.257324 
	C74.135460,302.711517 59.687248,287.761902 48.823277,270.047638 
	C43.450562,261.287140 40.293850,251.096313 36.727787,241.335892 
	C35.390961,237.676956 35.736561,233.403320 35.127754,228.703308 
	C34.995552,205.652695 35.050697,183.308731 35.214653,160.864166 
	C35.474911,160.472000 35.400093,160.228516 35.028896,159.566864 
	C35.002617,141.057037 35.046444,123.013405 35.198296,104.870079 
	C35.461815,104.485672 35.395164,104.240784 35.041645,103.690170 
	C35.024452,102.880501 35.071980,102.416397 35.282761,101.792130 
	C35.339138,101.104713 35.232269,100.577469 35.060684,99.704308 
	C35.031223,98.892082 35.066475,98.425758 35.274742,97.803329 
	C35.342087,97.115074 35.236420,96.582932 35.065239,95.809685 
	C34.999729,95.568573 34.887192,95.081696 34.887192,95.081696 
	C46.369022,89.435829 57.896145,83.879417 69.310638,78.100540 
	C73.947014,75.753258 78.321098,72.891655 82.845207,70.318001 
	C89.593872,66.478859 96.313934,62.583992 103.147499,58.900829 
	C112.576324,53.818874 122.110680,48.933109 131.578918,43.923786 
	C139.981659,39.478191 148.418610,35.090675 156.710175,30.445000 
	C159.803680,28.711750 162.255798,28.683109 165.444702,30.450750 
	C179.199142,38.074947 193.174561,45.299400 206.968338,52.854137 
	C217.629745,58.693314 228.084869,64.908699 238.734726,70.769562 
	C249.001816,76.419777 259.419769,81.795403 269.720123,87.386154 
	C271.124908,88.148628 272.232391,89.458801 273.750580,91.101227 
	C274.436951,95.267120 276.482544,95.250885 279.273407,94.115860 
	C279.681122,94.435379 279.866455,94.662331 280.195953,95.151703 
	C280.921936,95.585976 281.460968,95.792801 282.001221,96.408722 
	C282.664246,99.545654 283.326080,102.273476 284.216919,105.000992 
	C284.445953,105.000679 284.903809,104.988113 284.980072,105.421188 
	C285.007294,107.901756 284.958252,109.949265 284.557068,112.144783 
	C284.128937,115.859116 284.052948,119.425423 283.984222,123.370438 
	C283.987701,124.506386 283.983917,125.263626 283.765656,126.258430 
	C283.690033,127.660858 283.828888,128.825729 284.199127,129.994385 
	C284.430542,129.998169 284.893280,129.985779 284.961029,130.443054 
	C284.995636,134.599548 284.962494,138.298767 284.574158,142.144867 
	C282.646790,145.980515 281.527649,149.639572 284.967346,153.469299 
	C284.976257,163.956085 284.939026,173.976349 284.566467,184.128601 
	C284.148560,186.505630 284.066010,188.750687 284.102112,191.185577 
	C284.399750,191.620239 284.621155,191.817459 284.953308,192.433212 
	C284.971558,199.271606 284.921448,205.643829 284.645569,212.006927 
	C284.419830,211.997772 283.967957,211.996948 283.667542,212.079407 
	C283.572174,213.106277 283.777191,214.050690 284.101135,215.184982 
	C284.399323,215.619904 284.621002,215.817215 284.952942,216.365952 
	C284.983429,217.841843 284.946136,218.918594 284.714081,220.029785 
	C284.649048,220.377701 284.778748,220.691162 284.956543,221.380219 
	C284.961212,222.509201 284.917847,223.262619 284.652344,224.008148 
	C284.430176,224.000259 283.985657,223.998032 283.745605,224.276917 
	C282.594696,227.928955 279.459106,231.655426 285.006012,234.002899 
M267.471588,168.470352 
	C267.327850,166.993774 267.184113,165.517181 266.983276,163.269028 
	C267.004852,162.496216 267.026398,161.723419 267.534515,160.293991 
	C267.692078,154.484833 268.007874,148.674225 267.954651,142.867004 
	C267.915588,138.603760 267.392883,134.344955 267.020233,129.615051 
	C267.020233,129.615051 266.989380,129.142410 267.021729,128.211624 
	C267.340912,121.479553 267.660065,114.747475 267.956024,107.609474 
	C267.634460,107.478180 267.312897,107.346878 266.246460,107.165947 
	C261.877411,104.955971 257.456573,102.842072 253.148224,100.519447 
	C234.136246,90.270042 215.146271,79.979698 196.171188,69.662125 
	C189.725967,66.157585 183.371689,62.485870 176.928818,58.976879 
	C173.896255,57.325241 170.178238,56.480835 167.786774,54.203697 
	C163.672974,50.286594 160.269302,51.884140 156.258911,53.916531 
	C149.924698,57.126583 143.420151,60.000519 136.922150,62.829788 
	C136.922150,62.829788 136.703003,62.792622 136.703003,62.792622 
	C136.703003,62.792622 137.015701,62.989300 136.902756,63.680866 
	C136.483154,64.171616 136.158859,64.835022 135.629623,65.127129 
	C128.068497,69.300423 120.381477,73.255310 112.925858,77.607292 
	C105.819878,81.755203 98.130905,84.654510 90.993538,88.840805 
	C79.527626,95.565956 67.300163,100.992699 54.559879,107.178757 
	C54.059841,108.968842 53.161472,110.751160 53.126396,112.550308 
	C52.941490,122.035080 52.974339,131.524094 52.233929,141.041351 
	C51.347576,141.969589 50.461224,142.897812 49.574875,143.826050 
	C50.514599,144.260559 51.454323,144.695084 52.607136,145.944962 
	C52.754101,151.421341 53.011353,156.897400 53.028286,162.374176 
	C53.090439,182.475388 53.051067,202.576920 53.123173,222.678070 
	C53.129452,224.429504 53.671623,226.179001 54.069546,228.746216 
	C55.966755,240.816162 60.269043,251.799042 67.040588,262.126007 
	C80.374519,282.460938 98.193138,298.252991 117.153465,312.846832 
	C129.736130,322.531769 143.069138,331.242218 156.074280,340.377441 
	C158.333542,341.964478 160.427109,342.947296 163.224136,340.893036 
	C172.281281,334.240997 181.509781,327.821960 190.685364,321.331604 
	C193.999435,318.987366 197.553284,316.936035 200.644257,314.331604 
	C208.028259,308.109863 215.399933,301.847595 222.406860,295.211304 
	C229.904236,288.110504 237.230957,280.790680 244.146378,273.128021 
	C248.665451,268.120605 252.743179,262.591370 256.260376,256.832794 
	C261.290466,248.597321 265.154724,239.768341 266.494751,229.970093 
	C266.494751,229.970093 266.929352,229.957489 267.507263,229.940002 
	C267.672638,229.327209 267.981262,228.714661 267.982330,228.101593 
	C268.007263,213.506561 268.025208,198.911346 267.955688,184.316589 
	C267.948944,182.897217 267.364777,181.480621 267.007690,179.136185 
	C266.953430,175.734116 266.899170,172.332047 266.944214,168.941589 
	C266.944214,168.941589 267.030518,168.992004 267.471588,168.470352 
z"/>
<path fill="#818180" opacity="1.000000" stroke="none" 
	d="
M35.119507,101.952286 
	C35.071980,102.416397 35.024452,102.880501 35.001900,103.923073 
	C35.026871,104.501534 35.090271,104.969772 35.090271,104.969772 
	C35.046444,123.013405 35.002617,141.057037 34.996490,159.800049 
	C35.034191,160.499435 35.105843,160.964752 35.105843,160.964752 
	C35.050697,183.308731 34.995552,205.652695 34.911064,228.459290 
	C34.583168,227.895386 34.024254,226.869064 34.023548,225.842331 
	C33.994259,183.079239 34.014194,140.316116 34.036518,97.552986 
	C34.036861,96.891266 34.143742,96.229591 34.544044,95.324799 
	C34.887192,95.081696 34.999729,95.568573 34.996845,96.124496 
	C35.029884,97.106758 35.065804,97.533104 35.101730,97.959442 
	C35.066475,98.425758 35.031223,98.892082 35.012299,100.019958 
	C35.058918,101.105110 35.089211,101.528702 35.119507,101.952286 
z"/>
<path fill="#818180" opacity="1.000000" stroke="none" 
	d="
M284.909210,111.996765 
	C284.958252,109.949265 285.007294,107.901756 285.023315,104.978180 
	C285.011871,101.446754 285.033417,98.791412 285.054993,96.136063 
	C285.364655,97.502686 285.943298,98.868973 285.945007,100.235977 
	C285.998108,143.131134 285.995117,186.026367 285.656982,229.234955 
	C285.168365,228.681595 285.023468,227.814850 284.925934,226.582916 
	C284.940338,225.483826 284.907410,224.749924 284.874481,224.016022 
	C284.917847,223.262619 284.961212,222.509201 284.995361,221.127914 
	C284.960388,220.331802 284.934631,220.163589 284.908844,219.995361 
	C284.946136,218.918594 284.983429,217.841843 285.002625,215.972656 
	C284.946808,214.125504 284.909088,213.070786 284.871338,212.016068 
	C284.921448,205.643829 284.971558,199.271606 285.000061,192.113129 
	C284.951355,190.897446 284.924225,190.467987 284.966309,189.611115 
	C284.990906,187.454681 284.946350,185.725662 284.901794,183.996628 
	C284.939026,173.976349 284.976257,163.956085 285.027039,153.014160 
	C285.003510,148.727692 284.966431,145.362839 284.929321,141.998001 
	C284.962494,138.298767 284.995636,134.599548 285.010345,129.997604 
	C284.961639,126.412025 284.931366,123.729156 284.965454,120.699036 
	C284.984894,119.885353 284.939972,119.418938 284.941284,118.591217 
	C284.956482,117.504074 284.925415,116.778236 284.958923,115.650070 
	C284.985413,114.164085 284.947327,113.080429 284.909210,111.996765 
z"/>
<path fill="#21201B" opacity="1.000000" stroke="none" 
	d="
M152.986572,357.018646 
	C152.159714,356.771027 151.332870,356.523407 150.195129,356.171570 
	C148.319565,355.888336 146.754913,355.709290 145.042206,355.336182 
	C145.918625,353.137756 146.943085,351.133362 148.308563,348.461823 
	C150.027039,351.528412 151.374786,353.933441 152.861633,356.669250 
	C153.000748,357.000031 152.986572,357.018646 152.986572,357.018646 
z"/>
<path fill="#21201B" opacity="1.000000" stroke="none" 
	d="
M284.878571,226.948105 
	C285.023468,227.814850 285.168365,228.681595 285.611450,229.691223 
	C285.639282,230.987793 285.368896,232.141479 285.052277,233.649033 
	C279.459106,231.655426 282.594696,227.928955 283.756653,224.597260 
	C284.298035,225.408493 284.588287,226.178299 284.878571,226.948105 
z"/>
<path fill="#23201C" opacity="1.000000" stroke="none" 
	d="
M279.093842,93.988327 
	C276.482544,95.250885 274.436951,95.267120 274.003876,91.318680 
	C273.984131,90.950294 274.393005,90.870667 274.926208,90.886086 
	C275.676849,90.909035 275.894318,90.916557 276.111786,90.924088 
	C276.983978,91.425919 277.856201,91.927750 278.892822,92.951538 
	C279.069458,93.645119 279.081665,93.816727 279.093842,93.988327 
z"/>
<path fill="#23201C" opacity="1.000000" stroke="none" 
	d="
M283.987915,105.001297 
	C283.326080,102.273476 282.664246,99.545654 282.001221,96.408920 
	C282.000000,96.000000 282.000000,96.000610 282.187622,95.887360 
	C282.615540,95.602150 282.808350,95.387535 282.973083,95.119347 
	C282.992523,95.108437 283.018494,95.072609 283.018494,95.072609 
	C283.018494,95.072609 283.454865,95.113960 283.706757,95.548035 
	C283.968414,98.988503 283.978180,101.994896 283.987915,105.001297 
z"/>
<path fill="#100F0B" opacity="1.000000" stroke="none" 
	d="
M284.216949,105.000992 
	C283.978180,101.994896 283.968414,98.988503 283.925720,95.539185 
	C284.185242,95.292488 284.477661,95.488708 284.912537,95.910492 
	C285.033417,98.791412 285.011871,101.446754 284.947083,104.545105 
	C284.903809,104.988113 284.445953,105.000679 284.216949,105.000992 
z"/>
<path fill="#100F0B" opacity="1.000000" stroke="none" 
	d="
M279.273407,94.115860 
	C279.081665,93.816727 279.069458,93.645119 279.059570,93.215027 
	C280.271149,93.457115 281.480347,93.957680 282.854034,94.765427 
	C283.018494,95.072609 282.992523,95.108437 282.734192,95.079987 
	C282.475891,95.051544 281.991455,95.017921 281.660889,95.006348 
	C280.889862,94.971268 280.449432,94.947762 280.009003,94.924248 
	C279.866455,94.662331 279.681122,94.435379 279.273407,94.115860 
z"/>
<path fill="#1E1C16" opacity="1.000000" stroke="none" 
	d="
M275.979858,90.774826 
	C275.894318,90.916557 275.676849,90.909035 275.133423,90.865448 
	C275.154297,90.761452 275.501129,90.693504 275.979858,90.774826 
z"/>
<path fill="#000000" opacity="1.000000" stroke="none" 
	d="
M266.060516,229.948730 
	C265.154724,239.768341 261.290466,248.597321 256.260376,256.832794 
	C252.743179,262.591370 248.665451,268.120605 244.146378,273.128021 
	C237.230957,280.790680 229.904236,288.110504 222.406860,295.211304 
	C215.399933,301.847595 208.028259,308.109863 200.644257,314.331604 
	C197.553284,316.936035 193.999435,318.987366 190.685364,321.331604 
	C181.509781,327.821960 172.281281,334.240997 163.224136,340.893036 
	C160.427109,342.947296 158.333542,341.964478 156.074280,340.377441 
	C143.069138,331.242218 129.736130,322.531769 117.153465,312.846832 
	C98.193138,298.252991 80.374519,282.460938 67.040588,262.126007 
	C60.269043,251.799042 55.966755,240.816162 54.007061,227.875427 
	C53.954620,189.014359 53.942944,151.024048 54.035141,113.033958 
	C54.040051,111.010918 54.921242,108.989998 55.394501,106.968094 
	C67.300163,100.992699 79.527626,95.565956 90.993538,88.840805 
	C98.130905,84.654510 105.819878,81.755203 112.925858,77.607292 
	C120.381477,73.255310 128.068497,69.300423 135.629623,65.127129 
	C136.158859,64.835022 136.483154,64.171616 136.951263,63.340820 
	C136.999786,63.000771 136.987686,63.016712 136.987686,63.016716 
	C143.420151,60.000519 149.924698,57.126583 156.258911,53.916531 
	C160.269302,51.884140 163.672974,50.286594 167.786774,54.203697 
	C170.178238,56.480835 173.896255,57.325241 176.928818,58.976879 
	C183.371689,62.485870 189.725967,66.157585 196.171188,69.662125 
	C215.146271,79.979698 234.136246,90.270042 253.148224,100.519447 
	C257.456573,102.842072 261.877411,104.955971 266.761200,107.347374 
	C267.486267,107.725815 267.720673,107.888016 267.979218,108.015404 
	C267.660065,114.747475 267.340912,121.479553 266.684601,128.932617 
	C266.281647,142.755280 266.215851,155.856949 266.100891,169.427551 
	C266.054688,189.913895 266.057587,209.931320 266.060516,229.948730 
M132.944489,177.446396 
	C132.636658,177.271622 132.328827,177.096832 132.008804,176.988022 
	C132.008804,176.988022 132.068085,176.956589 131.903076,176.349762 
	C130.972794,175.526520 130.042496,174.703262 128.963135,173.396118 
	C128.681900,173.225494 128.400665,173.054871 127.918495,172.325302 
	C127.299812,171.860657 126.681129,171.396027 125.999718,170.998871 
	C125.999718,170.998871 126.067505,170.937027 125.850731,170.268036 
	C124.565048,169.816864 123.279358,169.365707 121.872101,168.414444 
	C121.578651,168.260452 121.285202,168.106445 120.783348,167.428207 
	C120.248322,167.319275 119.713295,167.210327 118.896317,166.450012 
	C113.942192,162.936554 108.988068,159.423111 104.016327,155.977234 
	C104.016327,155.977234 104.083992,155.959976 103.770615,155.321503 
	C97.522507,151.860931 91.274391,148.400360 85.004250,144.997040 
	C85.004250,144.997040 85.060402,144.972351 84.778419,144.322891 
	C79.573387,141.563034 74.368347,138.803177 68.742584,135.318832 
	C68.166084,136.133255 67.087128,136.946930 67.085907,137.762207 
	C67.046181,164.531998 67.109894,191.301910 67.059029,218.885498 
	C67.326797,219.471741 67.838852,220.063339 67.826141,220.643433 
	C67.587212,231.542023 72.779755,240.813675 77.242477,250.119705 
	C79.854698,255.566910 84.329521,260.120880 87.984047,265.011444 
	C87.984047,265.011444 87.918747,265.028839 88.008301,265.727936 
	C90.666260,268.504303 93.324211,271.280701 95.997780,274.000214 
	C95.997780,274.000214 95.940735,274.015167 96.021217,274.717010 
	C101.670036,279.839661 107.318863,284.962311 112.985397,290.018433 
	C112.985397,290.018433 112.918976,290.036560 113.165993,290.647339 
	C114.763741,292.124420 116.361488,293.601501 117.987183,295.012695 
	C117.987183,295.012695 117.921356,295.040802 118.186790,295.678101 
	C120.199234,296.965454 122.211678,298.252838 124.292343,299.767883 
	C124.292343,299.767883 124.525337,299.814972 124.906914,300.326172 
	C127.762413,302.482605 130.617920,304.639008 133.674713,307.081940 
	C133.829453,307.260315 134.010086,307.406769 134.644287,308.072144 
	C141.406815,312.728210 148.169342,317.384308 155.082962,322.561768 
	C155.388763,322.733459 155.694565,322.905151 155.979736,323.013794 
	C155.979736,323.013794 155.929153,323.056702 156.306610,323.765961 
	C160.155945,324.970734 160.900940,322.505371 160.961426,319.620880 
	C161.072968,314.301025 161.109024,308.974365 160.974579,303.655670 
	C160.728165,293.907440 160.205124,284.165131 160.036743,274.416260 
	C159.838470,262.936829 159.894562,251.453049 159.990143,239.123520 
	C159.673126,237.225861 159.165634,235.337799 159.069321,233.429001 
	C158.325974,218.694733 153.043854,205.598984 144.767044,193.243164 
	C144.767044,193.243164 144.480026,193.156189 144.114319,192.612396 
	C142.042572,189.640549 139.970825,186.668701 137.845963,183.268539 
	C137.517654,182.989075 137.189331,182.709625 136.960327,181.758453 
	C136.650711,181.479904 136.341080,181.201355 136.013947,180.987976 
	C136.013947,180.987976 136.078415,180.968094 135.969223,180.424316 
	C135.657928,180.255661 135.346634,180.086990 135.015762,179.984039 
	C135.015762,179.984039 135.082352,179.967621 134.964401,179.423416 
	C134.650497,179.256317 134.336609,179.089203 134.012527,178.988205 
	C134.012527,178.988205 134.078400,178.976562 133.948624,178.439560 
	C133.638687,178.268250 133.328735,178.096939 133.009048,177.991089 
	C133.009048,177.991089 133.074585,177.981796 132.944489,177.446396 
M190.039291,82.967003 
	C190.039291,82.967003 190.022003,82.945572 189.628769,82.383255 
	C184.450272,79.427826 179.343155,76.336777 174.069748,73.561729 
	C170.151199,71.499649 166.016998,69.847389 161.217911,68.426590 
	C161.140579,69.251785 160.995926,70.076958 160.995529,70.902191 
	C160.975800,112.418945 160.959869,153.935715 161.003128,195.452423 
	C161.004349,196.626251 161.650620,197.799393 162.094757,199.756165 
	C164.239075,207.585709 166.402420,215.410095 168.520126,223.246826 
	C169.677078,227.528214 171.493393,231.794891 171.702805,236.131439 
	C172.037506,243.062378 171.281967,250.045990 171.001709,256.998138 
	C171.001709,256.998138 171.014160,256.983856 170.464157,257.550049 
	C170.330215,260.072205 170.196274,262.594330 170.062332,265.116486 
	C170.594101,265.432037 171.125870,265.747589 171.657623,266.063141 
	C173.857513,264.116150 175.890533,261.928223 178.288544,260.267242 
	C185.531967,255.250046 193.244156,250.858170 200.183685,245.463654 
	C218.573135,231.168442 238.144653,218.036163 247.712570,195.148102 
	C250.495209,188.491531 252.872177,182.082428 253.012924,173.970413 
	C252.991531,156.010345 252.970154,138.050293 252.866592,119.365463 
	C251.805191,118.001762 251.020844,116.170540 249.637222,115.350586 
	C240.960632,110.208687 232.183289,105.232903 223.359161,100.346809 
	C221.400208,99.262093 219.120529,98.756584 216.999863,97.999329 
	C216.999863,97.999329 217.014862,98.009979 216.707825,97.387077 
	C214.891647,96.265999 213.118744,95.066307 211.251205,94.038567 
	C205.616882,90.937874 199.945786,87.904015 193.824768,84.338867 
	C192.570175,83.875885 191.315567,83.412903 190.039291,82.967003 
z"/>
<path fill="#5B5A57" opacity="1.000000" stroke="none" 
	d="
M54.977192,107.073425 
	C54.921242,108.989998 54.040051,111.010918 54.035141,113.033958 
	C53.942944,151.024048 53.954620,189.014359 53.954727,227.467010 
	C53.671623,226.179001 53.129452,224.429504 53.123173,222.678070 
	C53.051067,202.576920 53.090439,182.475388 53.028286,162.374176 
	C53.011353,156.897400 52.754101,151.421341 52.619957,145.209381 
	C52.732391,143.319763 52.832012,142.165695 52.931633,141.011642 
	C52.974339,131.524094 52.941490,122.035080 53.126396,112.550308 
	C53.161472,110.751160 54.059841,108.968842 54.977192,107.073425 
z"/>
<path fill="#373631" opacity="1.000000" stroke="none" 
	d="
M266.277649,229.959412 
	C266.057587,209.931320 266.054688,189.913895 266.274628,169.426941 
	C266.497498,168.957397 266.844910,168.929977 266.844910,168.929977 
	C266.899170,172.332047 266.953430,175.734116 267.017242,180.060867 
	C266.994324,197.309525 266.961853,213.633514 266.929382,229.957489 
	C266.929352,229.957489 266.494751,229.970093 266.277649,229.959412 
z"/>
<path fill="#110E09" opacity="1.000000" stroke="none" 
	d="
M267.218323,229.948746 
	C266.961853,213.633514 266.994324,197.309525 267.037720,180.524139 
	C267.364777,181.480621 267.948944,182.897217 267.955688,184.316589 
	C268.025208,198.911346 268.007263,213.506561 267.982330,228.101593 
	C267.981262,228.714661 267.672638,229.327209 267.218323,229.948746 
z"/>
<path fill="#45443F" opacity="1.000000" stroke="none" 
	d="
M266.894562,168.935791 
	C266.844910,168.929977 266.497498,168.957397 266.323792,168.958008 
	C266.215851,155.856949 266.281647,142.755280 266.668427,129.398010 
	C266.989380,129.142410 267.020233,129.615051 267.028595,130.308960 
	C267.040619,140.985458 267.044281,150.968033 267.047974,160.950607 
	C267.026398,161.723419 267.004852,162.496216 266.991791,164.066071 
	C267.010376,166.239426 267.020447,167.615707 267.030518,168.992004 
	C267.030518,168.992004 266.944214,168.941589 266.894562,168.935791 
z"/>
<path fill="#110E09" opacity="1.000000" stroke="none" 
	d="
M267.291229,160.622299 
	C267.044281,150.968033 267.040619,140.985458 267.061340,130.543518 
	C267.392883,134.344955 267.915588,138.603760 267.954651,142.867004 
	C268.007874,148.674225 267.692078,154.484833 267.291229,160.622299 
z"/>
<path fill="#21201B" opacity="1.000000" stroke="none" 
	d="
M284.574188,142.144867 
	C284.966431,145.362839 285.003510,148.727692 284.980896,152.547668 
	C281.527649,149.639572 282.646790,145.980515 284.574188,142.144867 
z"/>
<path fill="#21201B" opacity="1.000000" stroke="none" 
	d="
M284.557068,112.144783 
	C284.947327,113.080429 284.985413,114.164085 284.765991,115.853149 
	C284.637299,117.289864 284.766174,118.121185 284.895050,118.952515 
	C284.939972,119.418938 284.984894,119.885353 284.764130,120.890411 
	C284.324615,121.949936 284.150787,122.470833 283.976959,122.991730 
	C284.052948,119.425423 284.128937,115.859116 284.557068,112.144783 
z"/>
<path fill="#21201B" opacity="1.000000" stroke="none" 
	d="
M284.566467,184.128601 
	C284.946350,185.725662 284.990906,187.454681 284.780060,189.735336 
	C284.299377,190.488968 284.118988,190.725235 283.983459,190.995758 
	C284.066010,188.750687 284.148560,186.505630 284.566467,184.128601 
z"/>
<path fill="#14140D" opacity="1.000000" stroke="none" 
	d="
M52.582779,141.026489 
	C52.832012,142.165695 52.732391,143.319763 52.513412,144.801712 
	C51.454323,144.695084 50.514599,144.260559 49.574875,143.826050 
	C50.461224,142.897812 51.347576,141.969589 52.582779,141.026489 
z"/>
<path fill="#100F0B" opacity="1.000000" stroke="none" 
	d="
M283.984222,123.370438 
	C284.150787,122.470833 284.324615,121.949936 284.699768,121.237663 
	C284.931366,123.729156 284.961639,126.412025 284.942596,129.540344 
	C284.893280,129.985779 284.430542,129.998169 284.207092,129.597427 
	C283.982452,128.138077 283.981262,127.079475 283.980103,126.020874 
	C283.983917,125.263626 283.987701,124.506386 283.984222,123.370438 
z"/>
<path fill="#21201B" opacity="1.000000" stroke="none" 
	d="
M283.982208,214.995087 
	C283.777191,214.050690 283.572174,213.106277 283.676392,212.454239 
	C283.984528,213.496094 283.983368,214.245590 283.982208,214.995087 
z"/>
<path fill="#110E09" opacity="1.000000" stroke="none" 
	d="
M267.251038,168.731171 
	C267.020447,167.615707 267.010376,166.239426 267.020325,164.451874 
	C267.184113,165.517181 267.327850,166.993774 267.251038,168.731171 
z"/>
<path fill="#100F0B" opacity="1.000000" stroke="none" 
	d="
M284.101135,215.184982 
	C283.983368,214.245590 283.984528,213.496094 283.976807,212.371765 
	C283.967957,211.996948 284.419830,211.997772 284.645569,212.006927 
	C284.909088,213.070786 284.946808,214.125504 284.934875,215.573517 
	C284.621002,215.817215 284.399323,215.619904 284.101135,215.184982 
z"/>
<path fill="#21201B" opacity="1.000000" stroke="none" 
	d="
M283.765625,126.258430 
	C283.981262,127.079475 283.982452,128.138077 283.975677,129.593643 
	C283.828888,128.825729 283.690033,127.660858 283.765625,126.258430 
z"/>
<path fill="#100F0B" opacity="1.000000" stroke="none" 
	d="
M284.925934,226.582916 
	C284.588287,226.178299 284.298035,225.408493 283.996704,224.318359 
	C283.985657,223.998032 284.430176,224.000259 284.652344,224.008148 
	C284.907410,224.749924 284.940338,225.483826 284.925934,226.582916 
z"/>
<path fill="#110E09" opacity="1.000000" stroke="none" 
	d="
M267.967621,107.812439 
	C267.720673,107.888016 267.486267,107.725815 267.133636,107.372192 
	C267.312897,107.346878 267.634460,107.478180 267.967621,107.812439 
z"/>
<path fill="#21201B" opacity="1.000000" stroke="none" 
	d="
M284.714081,220.029785 
	C284.934631,220.163589 284.960388,220.331802 284.947327,220.752335 
	C284.778748,220.691162 284.649048,220.377701 284.714081,220.029785 
z"/>
<path fill="#100F0B" opacity="1.000000" stroke="none" 
	d="
M284.102112,191.185577 
	C284.118988,190.725235 284.299377,190.488968 284.710876,190.162750 
	C284.924225,190.467987 284.951355,190.897446 284.931702,191.646973 
	C284.621155,191.817459 284.399750,191.620239 284.102112,191.185577 
z"/>
<path fill="#0B0A06" opacity="1.000000" stroke="none" 
	d="
M35.282761,101.792130 
	C35.089211,101.528702 35.058918,101.105110 35.077011,100.365875 
	C35.232269,100.577469 35.339138,101.104713 35.282761,101.792130 
z"/>
<path fill="#0B0A06" opacity="1.000000" stroke="none" 
	d="
M35.274742,97.803329 
	C35.065804,97.533104 35.029884,97.106758 35.062355,96.365608 
	C35.236420,96.582932 35.342087,97.115074 35.274742,97.803329 
z"/>
<path fill="#23201C" opacity="1.000000" stroke="none" 
	d="
M280.195953,95.151703 
	C280.449432,94.947762 280.889862,94.971268 281.661682,95.251923 
	C281.993073,95.509071 282.000000,96.000610 282.000000,96.000610 
	C282.000000,96.000610 282.000000,96.000000 282.000000,95.999809 
	C281.460968,95.792801 280.921936,95.585976 280.195953,95.151703 
z"/>
<path fill="#0B0A06" opacity="1.000000" stroke="none" 
	d="
M35.198296,104.870079 
	C35.090271,104.969772 35.026871,104.501534 35.066620,104.268631 
	C35.395164,104.240784 35.461815,104.485672 35.198296,104.870079 
z"/>
<path fill="#21201B" opacity="1.000000" stroke="none" 
	d="
M153.010132,356.992889 
	C153.019531,356.985748 153.312546,357.190247 153.312546,357.190247 
	C153.312546,357.190247 153.079803,357.183533 153.033188,357.101074 
	C152.986572,357.018646 153.000748,357.000031 153.010132,356.992889 
z"/>
<path fill="#000000" opacity="1.000000" stroke="none" 
	d="
M137.007751,62.995033 
	C137.015701,62.989300 136.703003,62.792622 136.703003,62.792622 
	C136.703003,62.792622 136.922150,62.829788 136.954926,62.923248 
	C136.987686,63.016712 136.999786,63.000771 137.007751,62.995033 
z"/>
<path fill="#0B0A06" opacity="1.000000" stroke="none" 
	d="
M35.214653,160.864166 
	C35.105843,160.964752 35.034191,160.499435 35.066597,160.266266 
	C35.400093,160.228516 35.474911,160.472000 35.214653,160.864166 
z"/>
<path fill="#100F0B" opacity="1.000000" stroke="none" 
	d="
M284.941284,118.591217 
	C284.766174,118.121185 284.637299,117.289864 284.701355,116.255470 
	C284.925415,116.778236 284.956482,117.504074 284.941284,118.591217 
z"/>
<path fill="#1E1C16" opacity="1.000000" stroke="none" 
	d="
M282.187622,95.887360 
	C282.000000,96.000610 281.993073,95.509071 281.992249,95.263496 
	C281.991455,95.017921 282.475891,95.051544 282.714783,95.090897 
	C282.808350,95.387535 282.615540,95.602150 282.187622,95.887360 
z"/>
<path fill="#1D1A13" opacity="1.000000" stroke="none" 
	d="
M170.987335,257.007324 
	C171.281967,250.045990 172.037506,243.062378 171.702805,236.131439 
	C171.493393,231.794891 169.677078,227.528214 168.520126,223.246826 
	C166.402420,215.410095 164.239075,207.585709 162.056992,198.897827 
	C162.026596,196.047852 162.038315,194.056213 162.040680,192.064560 
	C162.082718,156.713318 162.123627,121.362061 162.521790,85.989548 
	C164.624619,85.061302 166.282227,83.845840 168.135849,83.315903 
	C171.329971,82.402710 174.646118,81.385094 177.910934,81.385536 
	C181.948029,81.386086 185.984985,82.380539 190.022003,82.945572 
	C190.022003,82.945572 190.039291,82.967003 190.038086,83.311798 
	C190.129837,88.794815 192.580109,85.492142 194.289017,84.844101 
	C199.945786,87.904015 205.616882,90.937874 211.251205,94.038567 
	C213.118744,95.066307 214.891647,96.265999 216.777222,97.742859 
	C216.846603,98.098648 216.836700,98.308723 216.836700,98.308723 
	C216.836700,98.308723 216.988525,97.984383 216.988525,97.984375 
	C219.120529,98.756584 221.400208,99.262093 223.359161,100.346809 
	C232.183289,105.232903 240.960632,110.208687 249.637222,115.350586 
	C251.020844,116.170540 251.805191,118.001762 252.622070,120.021133 
	C252.304260,138.341339 252.225754,156.005859 252.190170,173.670471 
	C252.189362,174.075699 252.673264,174.481918 252.931076,174.887665 
	C252.872177,182.082428 250.495209,188.491531 247.712570,195.148102 
	C238.144653,218.036163 218.573135,231.168442 200.183685,245.463654 
	C193.244156,250.858170 185.531967,255.250046 178.288544,260.267242 
	C175.890533,261.928223 173.857513,264.116150 171.657623,266.063141 
	C171.125870,265.747589 170.594101,265.432037 170.062332,265.116486 
	C170.196274,262.594330 170.330215,260.072205 170.772827,257.447266 
	C171.201096,257.531281 171.320679,257.718018 171.440262,257.904785 
	C171.473175,257.799408 171.567062,257.648651 171.528320,257.596558 
	C171.370041,257.383759 171.171219,257.201080 170.987335,257.007324 
M170.541931,226.511963 
	C170.541931,226.511963 170.495102,226.538040 170.541931,226.511963 
M248.537582,188.510269 
	C248.537582,188.510269 248.486725,188.537277 248.537582,188.510269 
z"/>
<path fill="#F3A221" opacity="1.000000" stroke="none" 
	d="
M120.991760,167.952438 
	C121.285202,168.106445 121.578651,168.260452 122.056076,169.006805 
	C123.515869,170.045120 124.791687,170.491074 126.067505,170.937027 
	C126.067505,170.937027 125.999718,170.998871 125.900597,171.306946 
	C125.845718,172.099533 125.889969,172.584061 125.967880,173.417542 
	C126.984116,174.523041 127.966675,175.279587 128.960052,176.019775 
	C128.970886,176.003403 128.980698,176.040604 129.107727,176.247818 
	C129.446732,176.712051 129.709167,176.897842 130.365143,177.054077 
	C131.161530,177.049377 131.614807,177.002991 132.068085,176.956589 
	C132.068085,176.956589 132.008804,176.988022 132.046463,177.245117 
	C132.414276,177.662064 132.744431,177.821930 133.074585,177.981796 
	C133.074585,177.981796 133.009048,177.991089 133.042282,178.250641 
	C133.409805,178.665634 133.744110,178.821106 134.078400,178.976562 
	C134.078400,178.976562 134.012527,178.988205 134.043884,179.250809 
	C134.410934,179.664810 134.746643,179.816223 135.082352,179.967621 
	C135.082352,179.967621 135.015762,179.984039 135.026794,180.256866 
	C135.384689,180.675842 135.731552,180.821976 136.078415,180.968094 
	C136.078415,180.968094 136.013947,180.987976 136.027771,181.261627 
	C136.314743,181.833588 136.587891,182.131866 136.861023,182.430161 
	C137.189331,182.709625 137.517654,182.989075 137.614685,183.613617 
	C137.488495,187.740707 141.406265,192.818298 144.480026,193.156189 
	C144.480026,193.156189 144.767044,193.243164 144.612335,193.764374 
	C145.501495,196.923859 146.274277,199.711761 147.633957,202.175781 
	C155.473419,216.382462 157.443710,231.989853 157.843430,247.730606 
	C158.361465,268.130920 157.935471,288.555206 157.551346,309.045410 
	C153.541412,310.470398 148.958130,308.220184 145.589828,312.023590 
	C143.467224,311.167847 141.746216,310.255585 139.950745,309.526855 
	C138.076721,308.766296 136.130981,308.182404 134.216599,307.521301 
	C134.010086,307.406769 133.829453,307.260315 133.687790,306.531677 
	C132.421188,299.257874 132.189087,299.101898 124.525337,299.814972 
	C124.525337,299.814972 124.292343,299.767883 124.325623,299.302368 
	C122.213051,297.571503 120.067207,296.306152 117.921356,295.040802 
	C117.921356,295.040802 117.987183,295.012695 117.991302,294.630127 
	C118.463036,290.240295 116.051796,289.703491 112.918976,290.036560 
	C112.918976,290.036560 112.985397,290.018433 112.934540,289.693604 
	C108.604424,282.740845 103.172394,277.385040 95.940735,274.015167 
	C95.940735,274.015167 95.997780,274.000214 95.995537,273.652527 
	C93.301781,270.546143 90.610260,267.787506 87.918747,265.028839 
	C87.918747,265.028839 87.984047,265.011444 87.977913,264.669250 
	C85.363495,259.625854 82.921745,254.822510 80.113770,250.243759 
	C73.362160,239.234436 69.910423,227.444214 69.906631,214.431183 
	C69.900681,194.022812 69.303627,173.615234 69.107079,153.205856 
	C69.062469,148.573624 69.633003,143.935471 69.960991,138.645157 
	C72.429688,139.827621 74.307388,140.837173 76.269440,141.640808 
	C79.168297,142.828140 82.127113,143.869080 85.060402,144.972351 
	C85.060402,144.972351 85.004250,144.997040 85.070419,145.316498 
	C90.371078,151.061813 96.571259,154.715347 104.083992,155.959976 
	C104.083992,155.959976 104.016327,155.977234 104.067818,156.291565 
	C107.758163,162.254852 112.955132,165.790771 119.569557,167.815262 
	C120.232826,167.878311 120.612289,167.915375 120.991760,167.952438 
M134.541748,182.494812 
	C134.541748,182.494812 134.498413,182.511200 134.541748,182.494812 
z"/>
<path fill="#E7A640" opacity="1.000000" stroke="none" 
	d="
M84.919411,144.647614 
	C82.127113,143.869080 79.168297,142.828140 76.269440,141.640808 
	C74.307388,140.837173 72.429688,139.827621 69.960991,138.645157 
	C69.633003,143.935471 69.062469,148.573624 69.107079,153.205856 
	C69.303627,173.615234 69.900681,194.022812 69.906631,214.431183 
	C69.910423,227.444214 73.362160,239.234436 80.113770,250.243759 
	C82.921745,254.822510 85.363495,259.625854 87.969109,264.701874 
	C84.329521,260.120880 79.854698,255.566910 77.242477,250.119705 
	C72.779755,240.813675 67.587212,231.542023 67.826141,220.643433 
	C67.838852,220.063339 67.326797,219.471741 67.364052,218.140167 
	C67.793709,216.082275 68.027184,214.769714 68.026833,213.457199 
	C68.020531,189.860382 67.953766,166.263474 68.010315,142.666855 
	C68.015617,140.458099 68.761353,138.251129 69.163307,136.043320 
	C74.368347,138.803177 79.573387,141.563034 84.919411,144.647614 
z"/>
<path fill="#E2AA45" opacity="1.000000" stroke="none" 
	d="
M134.430450,307.796722 
	C136.130981,308.182404 138.076721,308.766296 139.950745,309.526855 
	C141.746216,310.255585 143.467224,311.167847 145.701340,312.364410 
	C149.619965,313.725677 153.058182,314.721985 156.496399,315.718292 
	C156.969559,313.468567 157.442703,311.218872 157.915863,308.969147 
	C157.935471,288.555206 158.361465,268.130920 157.843430,247.730606 
	C157.443710,231.989853 155.473419,216.382462 147.633957,202.175781 
	C146.274277,199.711761 145.501495,196.923859 144.653214,193.908630 
	C153.043854,205.598984 158.325974,218.694733 159.069321,233.429001 
	C159.165634,235.337799 159.673126,237.225861 159.668915,239.885712 
	C159.233063,242.627884 159.019455,244.607834 159.018951,246.587860 
	C159.013000,270.018829 159.056168,293.449799 159.031067,316.880707 
	C159.028397,319.370819 159.935287,322.498749 155.929153,323.056702 
	C155.929153,323.056702 155.979736,323.013794 155.878540,322.814178 
	C155.495514,322.423157 155.213699,322.231781 154.931870,322.040375 
	C148.169342,317.384308 141.406815,312.728210 134.430450,307.796722 
z"/>
<path fill="#211F1A" opacity="1.000000" stroke="none" 
	d="
M189.825378,82.664413 
	C185.984985,82.380539 181.948029,81.386086 177.910934,81.385536 
	C174.646118,81.385094 171.329971,82.402710 168.135849,83.315903 
	C166.282227,83.845840 164.624619,85.061302 162.464478,85.523895 
	C162.026367,79.390541 162.002609,73.701561 161.978851,68.012589 
	C166.016998,69.847389 170.151199,71.499649 174.069748,73.561729 
	C179.343155,76.336777 184.450272,79.427826 189.825378,82.664413 
z"/>
<path fill="#7E7D7A" opacity="1.000000" stroke="none" 
	d="
M161.598389,68.219589 
	C162.002609,73.701561 162.026367,79.390541 162.107452,85.545166 
	C162.123627,121.362061 162.082718,156.713318 162.040680,192.064560 
	C162.038315,194.056213 162.026596,196.047852 162.007660,198.506180 
	C161.650620,197.799393 161.004349,196.626251 161.003128,195.452423 
	C160.959869,153.935715 160.975800,112.418945 160.995529,70.902191 
	C160.995926,70.076958 161.140579,69.251785 161.598389,68.219589 
z"/>
<path fill="#F3CF8B" opacity="1.000000" stroke="none" 
	d="
M156.117889,323.411316 
	C159.935287,322.498749 159.028397,319.370819 159.031067,316.880707 
	C159.056168,293.449799 159.013000,270.018829 159.018951,246.587860 
	C159.019455,244.607834 159.233063,242.627884 159.594009,240.309509 
	C159.894562,251.453049 159.838470,262.936829 160.036743,274.416260 
	C160.205124,284.165131 160.728165,293.907440 160.974579,303.655670 
	C161.109024,308.974365 161.072968,314.301025 160.961426,319.620880 
	C160.900940,322.505371 160.155945,324.970734 156.117889,323.411316 
z"/>
<path fill="#ECC87D" opacity="1.000000" stroke="none" 
	d="
M68.952942,135.681076 
	C68.761353,138.251129 68.015617,140.458099 68.010315,142.666855 
	C67.953766,166.263474 68.020531,189.860382 68.026833,213.457199 
	C68.027184,214.769714 67.793709,216.082275 67.413681,217.733322 
	C67.109894,191.301910 67.046181,164.531998 67.085907,137.762207 
	C67.087128,136.946930 68.166084,136.133255 68.952942,135.681076 
z"/>
<path fill="#E7A640" opacity="1.000000" stroke="none" 
	d="
M95.980972,274.366089 
	C103.172394,277.385040 108.604424,282.740845 112.925690,289.726868 
	C107.318863,284.962311 101.670036,279.839661 95.980972,274.366089 
z"/>
<path fill="#4A4844" opacity="1.000000" stroke="none" 
	d="
M252.972000,174.429047 
	C252.673264,174.481918 252.189362,174.075699 252.190170,173.670471 
	C252.225754,156.005859 252.304260,138.341339 252.663162,120.383514 
	C252.970154,138.050293 252.991531,156.010345 252.972000,174.429047 
z"/>
<path fill="#E7A640" opacity="1.000000" stroke="none" 
	d="
M103.927307,155.640747 
	C96.571259,154.715347 90.371078,151.061813 85.081436,145.287872 
	C91.274391,148.400360 97.522507,151.860931 103.927307,155.640747 
z"/>
<path fill="#E7A640" opacity="1.000000" stroke="none" 
	d="
M119.285759,167.789261 
	C112.955132,165.790771 107.758163,162.254852 104.076622,156.257782 
	C108.988068,159.423111 113.942192,162.936554 119.068726,166.946289 
	C119.241135,167.442566 119.285759,167.789261 119.285759,167.789261 
z"/>
<path fill="#E7A640" opacity="1.000000" stroke="none" 
	d="
M124.716125,300.070557 
	C132.189087,299.101898 132.421188,299.257874 133.587143,306.388428 
	C130.617920,304.639008 127.762413,302.482605 124.716125,300.070557 
z"/>
<path fill="#E2AA45" opacity="1.000000" stroke="none" 
	d="
M144.297180,192.884293 
	C141.406265,192.818298 137.488495,187.740707 137.641235,183.827759 
	C139.970825,186.668701 142.042572,189.640549 144.297180,192.884293 
z"/>
<path fill="#E7A640" opacity="1.000000" stroke="none" 
	d="
M87.963524,265.378387 
	C90.610260,267.787506 93.301781,270.546143 95.987732,273.680939 
	C93.324211,271.280701 90.666260,268.504303 87.963524,265.378387 
z"/>
<path fill="#E7A640" opacity="1.000000" stroke="none" 
	d="
M113.042480,290.341949 
	C116.051796,289.703491 118.463036,290.240295 117.977333,294.663086 
	C116.361488,293.601501 114.763741,292.124420 113.042480,290.341949 
z"/>
<path fill="#E7A640" opacity="1.000000" stroke="none" 
	d="
M118.054077,295.359436 
	C120.067207,296.306152 122.213051,297.571503 124.291504,299.188538 
	C122.211678,298.252838 120.199234,296.965454 118.054077,295.359436 
z"/>
<path fill="#211F1A" opacity="1.000000" stroke="none" 
	d="
M194.056885,84.591484 
	C192.580109,85.492142 190.129837,88.794815 190.048920,83.303261 
	C191.315567,83.412903 192.570175,83.875885 194.056885,84.591484 
z"/>
<path fill="#F1CC84" opacity="1.000000" stroke="none" 
	d="
M125.959122,170.602539 
	C124.791687,170.491074 123.515869,170.045120 122.116859,169.256866 
	C123.279358,169.365707 124.565048,169.816864 125.959122,170.602539 
z"/>
<path fill="#F1CC84" opacity="1.000000" stroke="none" 
	d="
M131.985580,176.653168 
	C131.614807,177.002991 131.161530,177.049377 130.240814,176.843414 
	C129.565186,176.326859 129.300964,176.143372 128.980698,176.040604 
	C128.980698,176.040604 128.970886,176.003403 128.953827,175.684402 
	C128.943787,174.920059 128.950806,174.474731 128.998245,173.993942 
	C129.038666,173.958496 129.112198,173.880020 129.112198,173.880005 
	C130.042496,174.703262 130.972794,175.526520 131.985580,176.653168 
z"/>
<path fill="#F1CC84" opacity="1.000000" stroke="none" 
	d="
M125.934212,173.068588 
	C125.889969,172.584061 125.845718,172.099533 125.931961,171.273193 
	C126.681129,171.396027 127.299812,171.860657 127.978531,172.644226 
	C128.038559,172.963165 127.965843,173.049637 127.628433,173.084930 
	C126.838760,173.103027 126.386482,173.085815 125.934212,173.068588 
z"/>
<path fill="#F1CC84" opacity="1.000000" stroke="none" 
	d="
M119.569557,167.815262 
	C119.285759,167.789261 119.241135,167.442566 119.209702,167.271973 
	C119.713295,167.210327 120.248322,167.319275 120.887558,167.690323 
	C120.612289,167.915375 120.232826,167.878311 119.569557,167.815262 
z"/>
<path fill="#F3CF8B" opacity="1.000000" stroke="none" 
	d="
M155.007416,322.301086 
	C155.213699,322.231781 155.495514,322.423157 155.888855,322.845703 
	C155.694565,322.905151 155.388763,322.733459 155.007416,322.301086 
z"/>
<path fill="#F1CC84" opacity="1.000000" stroke="none" 
	d="
M136.910675,182.094299 
	C136.587891,182.131866 136.314743,181.833588 136.036530,181.229065 
	C136.341080,181.201355 136.650711,181.479904 136.910675,182.094299 
z"/>
<path fill="#F1CC84" opacity="1.000000" stroke="none" 
	d="
M128.078995,172.923706 
	C128.400665,173.054871 128.681900,173.225494 129.037659,173.638062 
	C129.112198,173.880020 129.038666,173.958496 128.754944,173.924347 
	C128.302765,173.610016 128.134308,173.329834 127.965843,173.049637 
	C127.965843,173.049637 128.038559,172.963165 128.078995,172.923706 
z"/>
<path fill="#F1CC84" opacity="1.000000" stroke="none" 
	d="
M136.023819,180.696198 
	C135.731552,180.821976 135.384689,180.675842 135.036591,180.224014 
	C135.346634,180.086990 135.657928,180.255661 136.023819,180.696198 
z"/>
<path fill="#F1CC84" opacity="1.000000" stroke="none" 
	d="
M135.023376,179.695526 
	C134.746643,179.816223 134.410934,179.664810 134.048965,179.217743 
	C134.336609,179.089203 134.650497,179.256317 135.023376,179.695526 
z"/>
<path fill="#F1CC84" opacity="1.000000" stroke="none" 
	d="
M134.013519,178.708069 
	C133.744110,178.821106 133.409805,178.665634 133.047150,178.217896 
	C133.328735,178.096939 133.638687,178.268250 134.013519,178.708069 
z"/>
<path fill="#F1CC84" opacity="1.000000" stroke="none" 
	d="
M133.009537,177.714096 
	C132.744431,177.821930 132.414276,177.662064 132.052551,177.212128 
	C132.328827,177.096832 132.636658,177.271622 133.009537,177.714096 
z"/>
<path fill="#000000" opacity="1.000000" stroke="none" 
	d="
M170.994522,257.002747 
	C171.171219,257.201080 171.370041,257.383759 171.528320,257.596558 
	C171.567062,257.648651 171.473175,257.799408 171.440262,257.904785 
	C171.320679,257.718018 171.201096,257.531281 171.047836,257.164185 
	C171.014160,256.983856 171.001709,256.998138 170.994522,257.002747 
z"/>
<path fill="#000000" opacity="1.000000" stroke="none" 
	d="
M216.994202,97.991852 
	C216.988525,97.984383 216.836700,98.308723 216.836700,98.308723 
	C216.836700,98.308723 216.846603,98.098648 216.930725,98.054314 
	C217.014862,98.009979 216.999863,97.999329 216.994202,97.991852 
z"/>
<path fill="#000000" opacity="1.000000" stroke="none" 
	d="
M170.518524,226.524994 
	C170.495102,226.538040 170.541931,226.511963 170.518524,226.524994 
z"/>
<path fill="#000000" opacity="1.000000" stroke="none" 
	d="
M248.512146,188.523773 
	C248.486725,188.537277 248.537582,188.510269 248.512146,188.523773 
z"/>
<path fill="#F0A52F" opacity="1.000000" stroke="none" 
	d="
M157.551331,309.045410 
	C157.442703,311.218872 156.969559,313.468567 156.496399,315.718292 
	C153.058182,314.721985 149.619965,313.725677 146.070221,312.388550 
	C148.958130,308.220184 153.541412,310.470398 157.551331,309.045410 
z"/>
<path fill="#E2AA45" opacity="1.000000" stroke="none" 
	d="
M127.628433,173.084930 
	C128.134308,173.329834 128.302765,173.610016 128.714539,173.959808 
	C128.950806,174.474731 128.943787,174.920059 128.942993,175.700775 
	C127.966675,175.279587 126.984116,174.523041 125.967880,173.417542 
	C126.386482,173.085815 126.838760,173.103027 127.628433,173.084930 
z"/>
<path fill="#E2AA45" opacity="1.000000" stroke="none" 
	d="
M134.520081,182.503006 
	C134.498413,182.511200 134.541748,182.494812 134.520081,182.503006 
z"/>
<path fill="#E2AA45" opacity="1.000000" stroke="none" 
	d="
M129.107727,176.247818 
	C129.300964,176.143372 129.565186,176.326859 129.897705,176.801727 
	C129.709167,176.897842 129.446732,176.712051 129.107727,176.247818 
z"/>
</svg>